<svg width="116" height="116" viewBox="0 0 116 116" fill="none" xmlns="http://www.w3.org/2000/svg">
<circle cx="58" cy="58" r="45" fill="url(#paint0_linear_302_4502)"/>
<path d="M58 12C58 10.3431 59.3445 8.99042 60.9982 9.09178C70.4684 9.6722 79.5906 12.9924 87.2388 18.6796C95.6914 24.965 101.893 33.8068 104.926 43.8942C107.958 53.9817 107.659 64.7777 104.073 74.6818C100.487 84.5859 93.8048 93.0708 85.0173 98.8786C76.2298 104.686 65.8047 107.508 55.2875 106.925C44.7703 106.342 34.721 102.385 26.6294 95.6415C18.5377 88.8979 12.8345 79.7263 10.3653 69.4865C8.13112 60.2211 8.65227 50.5275 11.8304 41.5876C12.3853 40.0264 14.1568 39.3198 15.6811 39.9692L26.3105 44.4981C27.8348 45.1475 28.5291 46.9067 28.0278 48.4859C26.2976 53.9363 26.0808 59.7757 27.4302 65.3715C29.0148 71.943 32.6749 77.8289 37.8677 82.1566C43.0606 86.4844 49.5098 89.0236 56.2593 89.3978C63.0087 89.772 69.6991 87.9613 75.3385 84.2341C80.9779 80.5069 85.2662 75.0617 87.5676 68.7056C89.8689 62.3496 90.0608 55.4212 88.1148 48.9475C86.1689 42.4739 82.1886 36.7996 76.7642 32.766C72.145 29.3311 66.688 27.2417 60.9956 26.697C59.3462 26.5392 58 25.2109 58 23.554V12Z" fill="url(#paint1_linear_302_4502)"/>
<path d="M58 10C58 8.34315 59.3444 6.9908 60.9984 7.0882C69.2613 7.57479 77.2979 10.0667 84.4051 14.3678C92.3694 19.1875 98.8626 26.0953 103.181 34.3422C107.499 42.5892 109.478 51.8608 108.902 61.1522C108.327 70.4436 105.22 79.4002 99.9168 87.0514C94.614 94.7026 87.3181 100.756 78.82 104.557C70.3219 108.357 60.9457 109.759 51.7077 108.61C42.4696 107.462 33.7222 103.807 26.4134 98.041C19.8912 92.896 14.7367 86.2455 11.3806 78.6793C10.7088 77.1647 11.5031 75.4312 13.0546 74.8495L26.1789 69.9294C27.7303 69.3478 29.4464 70.1422 30.1753 71.6301C32.2109 75.7856 35.1575 79.4444 38.8104 82.3259C43.2506 85.8287 48.5649 88.0492 54.1773 88.747C59.7896 89.4448 65.4859 88.5931 70.6487 86.2843C75.8115 83.9755 80.2439 80.2977 83.4655 75.6494C86.6871 71.0012 88.575 65.5598 88.9245 59.915C89.2741 54.2703 88.072 48.6376 85.4485 43.6273C82.825 38.6171 78.8802 34.4205 74.0417 31.4923C70.0613 29.0835 65.6009 27.6087 60.9954 27.1614C59.3463 27.0012 58 25.6731 58 24.0163V10Z" fill="url(#paint2_linear_302_4502)"/>
<path d="M58 3C58 1.34315 59.3441 -0.00809278 60.9987 0.0775671C68.3746 0.459414 75.6194 2.24717 82.34 5.35437C89.9696 8.88179 96.7412 14.0254 102.186 20.4289C107.631 26.8324 111.619 34.3429 113.874 42.4403C116.129 50.5377 116.597 59.0284 115.246 67.3246C113.894 75.6207 110.756 83.524 106.048 90.4872C101.34 97.4504 95.1743 103.307 87.9786 107.652C80.783 111.996 72.7291 114.725 64.3745 115.649C57.0152 116.462 49.5776 115.859 42.4618 113.88C40.8655 113.436 40.0197 111.728 40.5455 110.157L47.2616 90.0881C47.7874 88.5169 49.4855 87.6848 51.1004 88.0555C54.4654 88.828 57.9435 89.0315 61.3892 88.6505C65.8311 88.1593 70.1132 86.7085 73.939 84.3986C77.7647 82.0887 81.0427 78.9749 83.5459 75.2727C86.0491 71.5705 87.7177 67.3685 88.4361 62.9577C89.1546 58.5468 88.9058 54.0325 87.7069 49.7273C86.508 45.4221 84.3877 41.4289 81.4927 38.0243C78.5978 34.6197 74.9975 31.885 70.941 30.0095C67.7944 28.5547 64.4315 27.6439 60.9953 27.3085C59.3463 27.1476 58 25.8196 58 24.1627V3Z" fill="url(#paint3_linear_302_4502)"/>
<circle cx="58" cy="58" r="25" fill="white"/>
<defs>
<linearGradient id="paint0_linear_302_4502" x1="58" y1="13" x2="58" y2="103" gradientUnits="userSpaceOnUse">
<stop stop-color="#B38BFF"/>
<stop offset="1" stop-color="#8044F1"/>
</linearGradient>
<linearGradient id="paint1_linear_302_4502" x1="112.791" y1="9" x2="94.9727" y2="178.273" gradientUnits="userSpaceOnUse">
<stop stop-color="#FFFDCE"/>
<stop offset="1" stop-color="#FF1DF7"/>
</linearGradient>
<linearGradient id="paint2_linear_302_4502" x1="115.027" y1="7" x2="96.4818" y2="183.182" gradientUnits="userSpaceOnUse">
<stop stop-color="#FFDE66"/>
<stop offset="1" stop-color="#FF1DF7"/>
</linearGradient>
<linearGradient id="paint3_linear_302_4502" x1="122.855" y1="7.7726e-07" x2="101.764" y2="200.364" gradientUnits="userSpaceOnUse">
<stop stop-color="#FFDE66"/>
<stop offset="1" stop-color="#F6733B"/>
</linearGradient>
</defs>
</svg>
