<svg width="122" height="196" viewBox="0 0 122 196" fill="none" xmlns="http://www.w3.org/2000/svg">
<mask id="mask0_322_66" style="mask-type:luminance" maskUnits="userSpaceOnUse" x="89" y="50" width="22" height="13">
<path d="M110.836 50.2026L91.0795 62.0191C90.698 62.2462 90.2501 62.3872 89.7524 62.4107L109.509 50.5942C110.006 50.5707 110.454 50.4297 110.836 50.2026Z" fill="white"/>
</mask>
<g mask="url(#mask0_322_66)">
<path d="M110.836 50.2026L91.0795 62.0191C90.698 62.2462 90.2501 62.3872 89.7524 62.4107L109.509 50.5942C110.006 50.5707 110.454 50.4297 110.836 50.2026Z" fill="#FEDD8E"/>
</g>
<path d="M90.2589 51.6123C88.484 51.5027 90.176 46.1074 89.753 44.7448C87.6463 38.1044 82.6202 34.3535 76.7315 31.4092L55.0178 46.6085C60.9065 49.5529 64.896 54.3452 67.0026 60.9935C67.4339 62.356 68.7195 63.327 70.5027 63.4367L89.753 62.4187L109.509 50.6022L90.2589 51.6123Z" fill="#FEDD8E"/>
<path d="M70.5025 65.2062C70.461 65.2062 70.4196 65.2062 70.3781 65.2062C67.8567 65.0495 65.8662 63.6244 65.2027 61.4944C63.2287 55.269 59.6125 50.9073 54.1468 48.1823C53.5745 47.8925 53.2013 47.3522 53.1515 46.7414C53.1017 46.1306 53.392 45.5433 53.9063 45.1753L75.6116 29.9759C76.1922 29.5687 76.9718 29.5139 77.6187 29.835C82.8108 32.4269 89.081 36.4049 91.5609 44.2278C91.818 45.0343 91.7102 46.0367 91.5195 47.6028C91.4448 48.1823 91.337 49.1063 91.3204 49.7719L109.41 48.8165C110.264 48.7696 111.052 49.2786 111.309 50.0538C111.574 50.829 111.251 51.6669 110.521 52.0976L90.7647 63.9141C90.491 64.0785 90.1841 64.1725 89.8607 64.1882L70.6103 65.2062C70.5689 65.2062 70.5357 65.2062 70.5025 65.2062ZM58.4016 46.4517C63.378 49.6544 66.8697 54.3607 68.8105 60.4764C69.0179 61.142 69.6399 61.5649 70.5274 61.6432L89.1557 60.6644L102.376 52.7554L90.3666 53.3897C90.2919 53.3975 90.2173 53.3897 90.1344 53.3897C89.4211 53.3427 88.7824 53.0373 88.3263 52.5205C87.2563 51.3145 87.5052 49.3099 87.7706 47.1956C87.8535 46.53 87.9779 45.5355 87.9365 45.2144C86.3689 40.3203 83.043 36.7808 76.8889 33.5232L58.4016 46.4517Z" fill="#212529"/>
<path d="M60.1431 33.3592C58.4262 33.8134 56.4108 32.5291 55.0174 33.3592L35.7256 47.102C37.119 46.272 38.6699 45.6299 40.3785 45.1757L41.6392 79.8499L61.3955 68.0334L60.1431 33.3592Z" fill="#FEDD8E"/>
<path d="M91.9009 137.727L70.9421 146.912C73.9694 143.443 75.3877 139.214 75.2052 134.203C75.0393 129.724 73.5713 125.761 70.8011 122.316C68.0226 118.87 63.577 116.043 57.4644 113.843L77.7349 100.883C83.8475 103.092 88.376 106.091 91.1545 109.536C93.9247 112.982 95.824 118.04 95.9899 122.519C96.1724 127.531 93.7256 131.627 90.6983 135.096" fill="#FEDD8E"/>
<path d="M63.9663 138.572L44.2101 150.389L42.8001 111.47L42.684 108.408C29.3722 103.647 19.5106 97.234 13.0745 89.1762C11.5484 87.2499 10.1799 85.253 8.99386 83.1701C5.19522 76.5375 3.1466 69.0983 2.84802 60.8605C2.44991 49.8975 5.59333 40.9627 12.2783 34.056C14.3186 31.9496 16.5746 30.1564 19.0545 28.6764L38.8107 16.8521C36.3308 18.3399 34.0666 20.1331 32.0345 22.2396C25.3496 29.1462 22.1979 38.0888 22.6043 49.044C22.8946 57.0234 24.8271 64.259 28.4101 70.7428H28.4184C29.6873 73.045 31.1637 75.2532 32.839 77.3675C39.2752 85.4175 49.1367 91.8308 62.4485 96.5997L62.8798 108.416L63.9663 138.572Z" fill="#FEDD8E"/>
<g opacity="0.6">
<path d="M27.7797 27.6584L19.0545 32.8736C16.5746 34.3614 14.3103 36.1468 12.2783 38.2533C6.39785 44.3299 3.26272 51.9726 2.85632 61.1815C2.84803 61.0719 2.84802 60.9701 2.84802 60.8683C2.44991 49.9053 5.59333 40.9705 12.2783 34.0639C14.3186 31.9574 16.5746 30.1642 19.0545 28.6842L38.8107 16.8599C36.3308 18.3477 34.0666 20.1409 32.0345 22.2474C30.4089 23.9231 28.9906 25.732 27.7797 27.6584Z" fill="white"/>
</g>
<path d="M44.2106 152.174C43.912 152.174 43.6051 152.103 43.3314 151.97C42.7342 151.673 42.3527 151.093 42.3278 150.459L40.8432 109.653C27.8465 104.83 18.0016 98.3066 11.5737 90.2567C4.93856 81.9327 1.36385 72.066 0.965743 60.9308C0.551044 49.545 3.89351 40.1012 10.8936 32.8657C13.0335 30.6574 15.4387 28.7389 18.0513 27.1806L37.8076 15.3641C38.6868 14.8394 39.8562 15.0822 40.4119 15.9122C40.9676 16.7423 40.7105 17.8464 39.8313 18.3711H39.823C37.4924 19.7649 35.3443 21.472 33.4367 23.4453C27.125 29.9683 24.1142 38.5664 24.4958 48.989C24.8773 59.3803 28.1866 68.5735 34.349 76.2946C40.528 84.0391 50.2071 90.3115 63.1125 94.9316C63.8258 95.1822 64.2986 95.8165 64.3317 96.5369L65.8578 138.517C65.8827 139.151 65.551 139.747 64.9787 140.083L45.2224 151.9C44.9155 152.08 44.5589 152.174 44.2106 152.174ZM26.3868 26.3975L20.0668 30.1797C17.7362 31.5736 15.588 33.2807 13.6721 35.2618C7.3604 41.7848 4.34969 50.3829 4.73121 60.8055C5.11273 71.1968 8.42203 80.39 14.5845 88.1111C20.7635 95.8556 30.4425 102.128 43.348 106.748C44.0613 106.999 44.534 107.633 44.5672 108.353L45.9772 147.233L62.0426 137.624L60.5912 97.8368C47.5945 93.0131 37.7495 86.4901 31.3217 78.4402C24.6865 70.1162 21.1118 60.2495 20.7137 49.1143C20.3985 40.3518 22.3062 32.7404 26.3868 26.3975Z" fill="#212529"/>
<path d="M77.7345 181.813L57.9782 193.63L48.1582 192.87C46.8311 192.768 45.7197 191.617 45.67 190.301L45.3382 181.046L45.0977 174.444C34.4482 172.346 25.5239 167.968 18.333 161.32C17.6363 160.678 16.9562 160.02 16.2927 159.331C9.42528 152.229 4.65623 142.832 1.97728 131.109C1.6787 129.794 2.21781 128.588 3.22968 127.993L22.9859 116.168C21.9824 116.771 21.435 117.977 21.7335 119.293C24.2964 130.491 28.7668 139.574 35.1532 146.551H35.1615C35.4518 146.88 35.7504 147.194 36.0572 147.507C43.5799 155.283 53.1843 160.318 64.8622 162.62L65.0862 168.877L65.4345 178.477C65.4843 179.793 66.5957 180.936 67.9227 181.038L77.7345 181.813Z" fill="#FEDD8E"/>
<path d="M58.1694 195.415C58.0532 195.415 57.9371 195.407 57.821 195.399C57.0165 195.337 56.3364 194.796 56.1456 194.053C55.9549 193.309 56.2866 192.533 56.9667 192.126L76.723 180.31C77.0713 180.106 77.4777 180.004 77.8841 180.036C77.9505 180.043 78.0003 180.036 78.0334 180.012C78.9126 179.488 80.0738 179.73 80.6377 180.568C81.1934 181.398 80.9363 182.494 80.0572 183.027L60.3009 194.843C59.6623 195.219 58.9324 195.415 58.1694 195.415Z" fill="#212529"/>
<path d="M57.9787 195.407C57.9289 195.407 57.8709 195.407 57.8211 195.4L47.9927 194.64C45.7036 194.46 43.854 192.581 43.7711 190.364L43.2486 175.886C31.861 173.388 22.3312 168.219 14.8915 160.53C7.82501 153.216 2.85692 143.443 0.128199 131.486C-0.336263 129.489 0.484838 127.523 2.20999 126.49L21.9662 114.673C22.8454 114.149 24.0148 114.391 24.5705 115.221C25.1262 116.051 24.8691 117.148 23.99 117.68C23.6167 117.907 23.4509 118.393 23.5753 118.917C26.163 130.256 30.8325 139.473 37.4428 146.317C44.6503 153.772 54.0059 158.674 65.2359 160.89C66.0819 161.054 66.704 161.751 66.7371 162.573L67.3177 178.431C67.3343 178.877 67.7407 179.261 68.0725 179.284L77.9008 180.044C78.9376 180.122 79.7089 180.983 79.626 181.962C79.543 182.941 78.6307 183.661 77.5939 183.591L67.7656 182.831C65.4764 182.651 63.6269 180.772 63.544 178.556L63.0214 164.077C51.6338 161.579 42.104 156.411 34.6643 148.721C27.6808 141.493 22.7459 131.861 19.9923 120.084L4.24201 129.504C3.86878 129.732 3.7029 130.217 3.82731 130.742C6.41503 142.088 11.0845 151.305 17.6948 158.141C24.9023 165.596 34.2579 170.498 45.488 172.714C46.334 172.879 46.956 173.576 46.9892 174.398L47.5698 190.255C47.5863 190.701 47.9927 191.085 48.3328 191.108L58.1612 191.868C59.1979 191.946 59.9692 192.808 59.8863 193.786C59.7785 194.703 58.9491 195.407 57.9787 195.407Z" fill="#212529"/>
<path d="M119.528 120.687C119.379 116.646 118.832 112.841 117.895 109.278C116.31 103.303 113.615 98.0172 109.791 93.405C103.687 86.0363 92.4984 79.5603 76.2008 73.9614L74.7742 34.7845C80.6629 37.721 84.6523 42.5212 86.759 49.1616C87.182 50.5242 88.4758 51.4952 90.259 51.6048L109.501 50.5946C111.334 50.5007 112.528 48.8327 112.039 47.0082C109.725 38.3866 105.669 31.2137 99.8801 25.4817C93.3361 19.0213 84.7104 14.7301 73.9697 12.6393L73.7043 5.31766C73.6545 3.87682 72.4436 2.62391 70.9921 2.51428L61.6116 1.78603C60.1602 1.6764 59.0239 2.7492 59.082 4.19005L59.3474 11.5039C47.827 11.7466 38.7203 15.3253 32.0353 22.2398C25.3504 29.1464 22.1987 38.0891 22.6051 49.0442C22.9949 59.8662 26.412 69.3021 32.8398 77.3599C39.276 85.4098 49.1375 91.8232 62.4493 96.592L63.9754 138.572C60.2846 136.56 56.8841 133.498 53.7987 129.387C51.2193 125.981 49.2702 122.112 47.9597 117.782C47.5202 116.349 46.2263 115.292 44.4597 115.174L24.3966 115.762C22.5553 115.816 21.3112 117.445 21.7342 119.285C24.4131 131 29.1822 140.405 36.0496 147.499C43.5722 155.275 53.1767 160.31 64.8546 162.613L65.4352 178.47C65.4849 179.785 66.5963 180.928 67.9234 181.03L77.7434 181.79C79.0705 181.892 80.1072 180.913 80.0575 179.589L79.4686 163.231C92.515 162.378 102.559 158.086 109.617 150.373C116.667 142.691 119.976 132.785 119.528 120.687ZM51.3603 59.9132C49.096 56.7026 47.9017 53.3354 47.769 49.7959C47.628 45.9197 48.673 42.4742 50.9124 39.4438C53.1518 36.4133 56.2206 34.393 60.1353 33.3593L61.396 68.0336C56.967 65.8253 53.6162 63.1159 51.3603 59.9132ZM90.6903 135.103C87.663 138.564 83.657 140.569 78.6392 141.109L77.2209 102.027C83.3336 104.235 87.7791 107.054 90.5576 110.499C93.3278 113.945 94.7958 117.907 94.9617 122.386C95.1442 127.398 93.7259 131.634 90.6903 135.103Z" fill="#FFC931"/>
<g opacity="0.3">
<path d="M119.528 120.687C119.52 120.351 119.503 120.014 119.487 119.677C118.939 129.489 115.646 137.688 109.592 144.289C103.114 151.376 92.9873 155.44 81.2679 156.716C79.4847 156.912 78.1577 158.376 78.2157 160.076L78.3236 163.083C91.2622 162.19 102.567 158.071 109.584 150.397C116.667 142.691 119.976 132.786 119.528 120.687ZM112.047 47.0084C111.765 45.9512 111.458 44.9176 111.118 43.8996C110.687 44.2441 110.131 44.4556 109.509 44.4869L90.2669 45.4971C88.492 45.3874 87.1981 44.4164 86.7668 43.0539C84.967 37.3845 81.7987 33.0619 77.2536 30.0941C76.1505 29.3737 74.6244 30.0628 74.4834 31.3235L74.1185 34.6594C79.8828 37.6116 84.685 42.6075 86.7668 49.1618C87.1898 50.5243 88.4837 51.4953 90.2669 51.605L109.509 50.5948C111.334 50.5009 112.536 48.8408 112.047 47.0084ZM94.9613 116.286C94.8037 111.807 93.3274 107.845 90.5572 104.399C88.2266 101.51 84.1128 99.0511 79.2359 97.0308C77.9171 96.4826 76.4574 97.4458 76.5403 98.8005L76.7394 102.027C82.736 104.219 87.8202 107.093 90.5655 110.5C92.8629 113.358 94.2646 116.576 94.7622 120.147C94.9447 118.917 95.0028 117.625 94.9613 116.286ZM79.8579 174.492C79.5096 175.283 78.6968 175.792 77.7264 175.713L67.9063 174.954C66.5793 174.852 65.4679 173.701 65.4181 172.393L66.1148 158.674C66.1646 157.609 65.4181 156.661 64.3233 156.411C53.3587 153.928 43.1571 148.776 36.0409 141.415C29.837 134.994 25.3333 126.693 22.5466 116.498C21.8167 117.148 21.46 118.189 21.7255 119.301C24.4044 131.016 29.1734 140.421 36.0409 147.515C43.5635 155.291 53.1679 160.326 64.8458 162.628L65.4264 178.485C65.4762 179.801 66.5876 180.944 67.9146 181.046L77.7347 181.806C79.0617 181.907 80.0985 180.929 80.0487 179.605L79.8579 174.492ZM63.9667 93.8045C63.9667 92.1914 62.9299 90.7427 61.3541 90.1319C49.1785 85.41 38.8442 78.7774 32.8394 71.26C26.6687 63.5154 23.2764 54.5023 22.671 44.205C22.5714 45.7711 22.5466 47.3842 22.6046 49.0444C22.9944 59.8663 26.4116 69.3023 32.8394 77.3601C39.2755 85.41 49.1371 91.8233 62.4489 96.5922L63.751 132.339C63.8257 132.386 63.9003 132.425 63.975 132.465V93.8045H63.9667ZM61.4038 29.7887C61.4038 28.6611 60.2261 27.8702 59.1064 28.2382C55.8966 29.3032 52.7283 30.9007 50.9203 33.336C48.6809 36.3665 47.6358 39.812 47.7768 43.6882C47.8017 44.4947 47.893 45.2935 48.034 46.0765C48.4569 43.6725 49.4273 41.4643 50.9203 39.4361C53.1596 36.4056 56.2284 34.3853 60.1432 33.3517L61.1799 61.8005C61.2546 61.8397 61.3292 61.8788 61.4038 61.918V29.7887Z" fill="#212529"/>
</g>
<g opacity="0.6">
<path d="M117.895 108.643L116.949 109.622C110.787 93.9766 96.0565 84.9244 78.1415 78.3309C77.1628 77.9707 76.491 77.1172 76.4163 76.1305L76.209 73.335C92.4984 78.9339 103.695 85.4099 109.8 92.7785C113.615 97.383 116.31 102.669 117.895 108.643Z" fill="white"/>
</g>
<g opacity="0.3">
<path d="M79.6753 163.239C79.609 163.247 79.5261 163.247 79.4514 163.254L79.8578 174.484C79.9905 174.194 80.0486 173.865 80.0403 173.505L79.6753 163.239Z" fill="#212529"/>
</g>
<g opacity="0.6">
<path d="M47.9514 117.79C47.5119 116.357 46.218 115.3 44.4514 115.182L24.3883 115.769C22.547 115.824 21.3029 117.453 21.7259 119.293C22.7958 123.976 24.1975 128.283 25.9309 132.222C24.803 129.207 23.8491 126.004 23.0695 122.598C22.6465 120.758 23.8906 119.129 25.7319 119.074L45.795 118.487C47.0059 118.565 48.0012 119.09 48.6399 119.865C48.3993 119.191 48.1671 118.494 47.9514 117.79ZM73.7043 5.32548C73.6545 3.88463 72.4436 2.63173 70.9921 2.5221L61.6116 1.79384C60.1602 1.68421 59.0239 2.75701 59.082 4.19786L59.3474 11.5117C47.827 11.7545 38.7202 15.3331 32.0353 22.2476C25.3504 29.1542 22.1986 38.0969 22.6051 49.052C22.8456 55.7472 24.2473 61.91 26.8101 67.5481C25.1015 62.8262 24.156 57.7675 23.957 52.3565C23.5589 41.4014 26.7023 32.4588 33.3872 25.5521C39.5994 19.131 47.8934 15.5915 58.2692 14.9259C59.6211 14.8398 60.6661 13.7748 60.6164 12.4984L60.4339 7.51023C60.3841 6.06939 61.5204 4.99659 62.9636 5.10622L72.344 5.83447C72.85 5.87363 73.3393 6.05373 73.7457 6.33563L73.7043 5.32548ZM96.3053 125.699C96.1892 122.606 95.4593 119.763 94.0991 117.155C94.6051 118.816 94.8871 120.562 94.9534 122.386C95.1359 127.398 93.7176 131.626 90.6903 135.095C87.9118 138.267 82.1143 140.389 77.6771 141.102L77.7268 142.558C77.7683 143.662 78.8382 144.469 79.9828 144.25C84.4947 143.388 89.4379 141.368 92.0339 138.392C95.0695 134.939 96.4878 130.702 96.3053 125.699ZM99.8801 25.4816C93.5932 19.2719 83.9058 14.8946 73.7374 12.7255V14.1193C73.7374 15.1138 74.459 15.9909 75.4875 16.218C85.5729 18.434 95.0447 22.6861 101.224 28.794C105.138 32.6702 108.257 37.1963 110.579 42.3881C108.174 35.7946 104.608 30.1566 99.8801 25.4816Z" fill="white"/>
</g>
<g opacity="0.6">
<path d="M49.3032 121.094C49.1705 120.648 48.9382 120.233 48.6479 119.865C49.0212 120.891 49.4276 121.877 49.8755 122.833C49.6681 122.269 49.4773 121.689 49.3032 121.094Z" fill="white"/>
</g>
<path d="M77.9338 183.599C77.8177 183.599 77.7016 183.591 77.5855 183.583L67.7571 182.823C65.468 182.643 63.6184 180.764 63.5355 178.548L63.013 164.069C51.6253 161.571 42.0956 156.403 34.6559 148.713C27.5894 141.399 22.6213 131.626 19.8926 119.669C19.5608 118.236 19.8926 116.779 20.8049 115.675C21.6592 114.642 22.9448 114.031 24.3465 113.992L44.4096 113.404C44.4759 113.404 44.534 113.404 44.6003 113.404C47.0802 113.569 49.1123 115.096 49.7841 117.288C51.0282 121.399 52.8943 125.119 55.341 128.353C57.4145 131.102 59.6373 133.365 61.9762 135.119L60.616 97.8213C47.6194 92.9976 37.7744 86.4746 31.3466 78.4247C24.7114 70.1007 21.1367 60.234 20.7386 49.0988C20.3239 37.713 23.6663 28.2692 30.6665 21.0336C37.3016 14.174 46.3006 10.3996 57.4145 9.79662L57.2155 4.24468C57.174 3.03092 57.6551 1.87981 58.5425 1.08108C59.4134 0.298012 60.5663 -0.0856894 61.7855 0.0161094L71.166 0.744361C73.5712 0.932298 75.5203 2.91346 75.6032 5.26266L75.8189 11.1983C86.2195 13.4536 94.7706 17.8466 101.257 24.2521C107.245 30.1799 111.491 37.6817 113.88 46.5695C114.261 48.0025 113.979 49.4747 113.1 50.6023C112.279 51.6594 111.01 52.3015 109.617 52.372L90.3665 53.39C90.2919 53.3978 90.2089 53.39 90.1343 53.39C87.6129 53.2334 85.6224 51.8082 84.9588 49.6783C83.3581 44.6196 80.6709 40.7983 76.7893 38.081L78.05 72.7161C93.9578 78.3072 105.138 84.9006 111.284 92.3163C117.604 99.9512 121.013 109.481 121.419 120.632C121.875 133.138 118.375 143.545 111.027 151.563C104.002 159.253 94.0325 163.732 81.4007 164.891L81.9315 179.558C81.973 180.717 81.5168 181.813 80.6709 182.573C79.9244 183.238 78.9623 183.599 77.9338 183.599ZM44.4013 116.967L24.446 117.555C24.164 117.562 23.9318 117.672 23.7659 117.868C23.5502 118.126 23.4756 118.51 23.5668 118.909C26.1545 130.256 30.824 139.473 37.4343 146.309C44.6418 153.764 53.9974 158.666 65.2275 160.882C66.0735 161.046 66.6955 161.743 66.7287 162.565L67.3093 178.422C67.3258 178.869 67.7323 179.252 68.064 179.276L77.8924 180.036C78.0085 180.043 78.05 180.012 78.0666 179.996C78.1329 179.934 78.1661 179.816 78.1661 179.675L77.5689 163.317C77.5357 162.362 78.3071 161.547 79.3189 161.477C91.7848 160.662 101.489 156.544 108.174 149.23C114.884 141.908 118.068 132.323 117.645 120.749C117.264 110.366 114.129 101.533 108.306 94.5011C102.451 87.4378 91.4282 81.0871 75.5535 75.637C74.8319 75.3864 74.3426 74.7521 74.3094 74.0238L72.8828 34.847C72.8579 34.2127 73.198 33.6097 73.7703 33.273C74.3426 32.9363 75.0558 32.9128 75.653 33.2104C81.9647 36.3661 86.3108 41.5657 88.5584 48.6524C88.7658 49.3181 89.3878 49.7409 90.2753 49.8192L109.393 48.8091C109.667 48.7934 109.891 48.6838 110.048 48.4802C110.255 48.2139 110.314 47.8302 110.206 47.4309C107.975 39.146 104.043 32.1767 98.5112 26.6952C92.2658 20.5246 83.8806 16.3744 73.5878 14.3697C72.7335 14.2053 72.1115 13.5084 72.0866 12.6861L71.8212 5.36446C71.8046 4.83197 71.3318 4.31515 70.8425 4.276L61.462 3.54774C61.321 3.53208 61.2132 3.57124 61.1302 3.64171C61.0224 3.74351 60.9644 3.90796 60.9727 4.11155L61.2381 11.4332C61.2547 11.9109 61.0722 12.3729 60.7238 12.7175C60.3755 13.062 59.9027 13.2656 59.3968 13.2734C48.4653 13.5084 39.7318 16.9225 33.4367 23.422C27.1249 29.945 24.1142 38.543 24.4957 48.9657C24.8773 59.357 28.1866 68.5502 34.349 76.2712C40.528 84.0158 50.2071 90.2881 63.1125 94.9082C63.8258 95.1588 64.2985 95.7931 64.3317 96.5135L65.8578 138.494C65.8827 139.144 65.5343 139.747 64.9455 140.083C64.3566 140.412 63.6267 140.42 63.0296 140.099C59.1231 137.969 55.4986 134.712 52.2557 130.413C49.5601 126.85 47.5032 122.762 46.143 118.259C45.9108 117.531 45.2804 117.053 44.4013 116.967ZM78.6471 142.887C78.1993 142.887 77.7597 142.738 77.4196 142.456C77.0215 142.135 76.781 141.665 76.7644 141.172L75.3461 102.089C75.3212 101.494 75.6198 100.922 76.1341 100.578C76.6483 100.233 77.3118 100.147 77.9007 100.366C84.3285 102.684 89.0892 105.73 92.0668 109.426C95.0692 113.162 96.6782 117.5 96.8524 122.323C97.0515 127.758 95.4673 132.433 92.158 136.231C88.8155 140.044 84.3451 142.284 78.8711 142.879C78.7881 142.887 78.7135 142.887 78.6471 142.887ZM79.2111 104.736L80.4552 139.018C84.0382 138.267 86.9245 136.607 89.2385 133.96C91.9838 130.812 93.2445 127.045 93.0704 122.441C92.9211 118.369 91.5691 114.712 89.0478 111.572C86.9245 108.933 83.6152 106.639 79.2111 104.736ZM61.4039 69.8109C61.1054 69.8109 60.7985 69.7405 60.5248 69.6073C55.8221 67.266 52.2142 64.3373 49.7924 60.8996C47.3456 57.415 46.0269 53.7032 45.8859 49.8505C45.7283 45.5985 46.9061 41.7536 49.3694 38.4178C51.8493 35.0662 55.2996 32.7797 59.6373 31.6364C60.193 31.4876 60.7902 31.5894 61.2629 31.9105C61.7274 32.2315 62.0177 32.7405 62.0343 33.2887L63.295 67.9629C63.3199 68.5972 62.9798 69.1923 62.4158 69.529C62.1006 69.717 61.7523 69.8109 61.4039 69.8109ZM58.3435 35.8493C55.9299 36.8673 53.9891 38.3864 52.463 40.4616C50.4476 43.1866 49.527 46.2249 49.6597 49.7331C49.7758 52.9593 50.8457 55.9663 52.9358 58.9263C54.4951 61.1345 56.6681 63.1157 59.4051 64.8385L58.3435 35.8493Z" fill="#212529"/>
<path d="M42.6846 110.194C42.0625 110.194 41.4488 109.904 41.0921 109.364C40.5364 108.533 40.7935 107.429 41.6727 106.905L61.429 95.0882C62.3081 94.5636 63.4776 94.8063 64.0333 95.6364C64.589 96.4664 64.3318 97.5705 63.4527 98.0952L43.6964 109.912C43.3813 110.1 43.0329 110.194 42.6846 110.194Z" fill="#212529"/>
<g opacity="0.3">
<path d="M62.8721 108.408L42.8006 111.47L42.6845 108.408C29.3727 103.647 19.5111 97.2339 13.075 89.1761C11.5489 87.2498 10.1804 85.2529 8.99438 83.17L28.4106 70.7349H28.4189C29.6879 73.0371 31.1642 75.2453 32.8396 77.3596C39.2757 85.4096 49.1372 91.8229 62.4491 96.5918L62.8721 108.408Z" fill="#212529"/>
</g>
<g opacity="0.3">
<path d="M60.1683 44.0873C60.1683 44.0873 51.4181 45.2306 49.7428 55.0268C49.7428 55.0268 43.4891 39.4907 59.2476 34.667" fill="#212529"/>
</g>
<g opacity="0.3">
<path d="M88.8902 51.3225L75.8105 63.1468L76.7229 35.8726L83.5322 42.3877L86.5927 46.8825" fill="#212529"/>
</g>
<g opacity="0.3">
<path d="M65.07 168.885L45.3304 181.046L45.0899 174.445C34.4404 172.346 25.5161 167.969 18.3252 161.32L35.1454 146.552H35.1537C35.444 146.881 35.7425 147.194 36.0494 147.507C43.5721 155.283 53.1765 160.318 64.8544 162.62L65.07 168.885Z" fill="#212529"/>
</g>
<path d="M46.5911 193.974C45.9856 193.974 45.3884 193.7 45.0235 193.183C44.4429 192.369 44.6752 191.257 45.5377 190.717L64.8959 178.462C65.7584 177.914 66.9362 178.133 67.5085 178.947C68.0891 179.762 67.8568 180.874 66.9943 181.414L47.6361 193.669C47.3209 193.88 46.956 193.974 46.5911 193.974Z" fill="#212529"/>
</svg>
