<svg width="338" height="412" viewBox="0 0 338 412" fill="none" xmlns="http://www.w3.org/2000/svg">
<line x1="-166.293" y1="66.675" x2="439.679" y2="-95.6947" stroke="#ECECEC" stroke-width="2.56061"/>
<line x1="-161.654" y1="80.5295" x2="444.318" y2="-81.8402" stroke="#ECECEC" stroke-width="2.56061"/>
<line x1="-157.015" y1="94.384" x2="448.957" y2="-67.9858" stroke="#ECECEC" stroke-width="2.56061"/>
<line x1="-152.376" y1="108.239" x2="453.596" y2="-54.1312" stroke="#ECECEC" stroke-width="2.56061"/>
<line x1="-147.737" y1="122.093" x2="458.235" y2="-40.2766" stroke="#ECECEC" stroke-width="2.56061"/>
<line x1="-143.098" y1="135.948" x2="462.875" y2="-26.4222" stroke="#ECECEC" stroke-width="2.56061"/>
<line x1="-138.459" y1="149.802" x2="467.513" y2="-12.5676" stroke="#ECECEC" stroke-width="2.56061"/>
<line x1="-133.819" y1="163.657" x2="472.153" y2="1.28689" stroke="#ECECEC" stroke-width="2.56061"/>
<line x1="-129.18" y1="177.511" x2="476.792" y2="15.1414" stroke="#ECECEC" stroke-width="2.56061"/>
<line x1="-124.541" y1="191.366" x2="481.431" y2="28.996" stroke="#ECECEC" stroke-width="2.56061"/>
<line x1="-119.902" y1="205.22" x2="486.07" y2="42.8505" stroke="#ECECEC" stroke-width="2.56061"/>
<line x1="-115.263" y1="219.075" x2="490.709" y2="56.705" stroke="#ECECEC" stroke-width="2.56061"/>
<line x1="-110.624" y1="232.929" x2="495.348" y2="70.5595" stroke="#ECECEC" stroke-width="2.56061"/>
<line x1="-105.985" y1="246.784" x2="499.987" y2="84.4141" stroke="#ECECEC" stroke-width="2.56061"/>
<line x1="-101.346" y1="260.638" x2="504.627" y2="98.2686" stroke="#ECECEC" stroke-width="2.56061"/>
<line x1="-96.7063" y1="274.493" x2="509.266" y2="112.123" stroke="#ECECEC" stroke-width="2.56061"/>
<line x1="-92.0671" y1="288.347" x2="513.905" y2="125.978" stroke="#ECECEC" stroke-width="2.56061"/>
<line x1="-87.4282" y1="302.202" x2="518.544" y2="139.832" stroke="#ECECEC" stroke-width="2.56061"/>
<line x1="-82.7889" y1="316.057" x2="523.183" y2="153.687" stroke="#ECECEC" stroke-width="2.56061"/>
<line x1="-78.1497" y1="329.911" x2="527.822" y2="167.541" stroke="#ECECEC" stroke-width="2.56061"/>
<line x1="-73.5108" y1="343.766" x2="532.461" y2="181.396" stroke="#ECECEC" stroke-width="2.56061"/>
<line x1="-68.8716" y1="357.62" x2="537.101" y2="195.25" stroke="#ECECEC" stroke-width="2.56061"/>
<line x1="-64.2324" y1="371.475" x2="541.74" y2="209.105" stroke="#ECECEC" stroke-width="2.56061"/>
<line x1="-59.5931" y1="385.329" x2="546.379" y2="222.959" stroke="#ECECEC" stroke-width="2.56061"/>
<line x1="-54.9542" y1="399.184" x2="551.018" y2="236.814" stroke="#ECECEC" stroke-width="2.56061"/>
<line x1="-50.315" y1="413.038" x2="555.657" y2="250.668" stroke="#ECECEC" stroke-width="2.56061"/>
<line x1="-45.6758" y1="426.893" x2="560.296" y2="264.523" stroke="#ECECEC" stroke-width="2.56061"/>
<line x1="-41.0369" y1="440.747" x2="564.935" y2="278.378" stroke="#ECECEC" stroke-width="2.56061"/>
<line x1="-36.3977" y1="454.602" x2="569.574" y2="292.232" stroke="#ECECEC" stroke-width="2.56061"/>
<line x1="-31.7584" y1="468.456" x2="574.214" y2="306.087" stroke="#ECECEC" stroke-width="2.56061"/>
<line x1="-27.1192" y1="482.311" x2="578.853" y2="319.941" stroke="#ECECEC" stroke-width="2.56061"/>
<line x1="-22.4803" y1="496.165" x2="583.492" y2="333.796" stroke="#ECECEC" stroke-width="2.56061"/>
<line x1="-17.8411" y1="510.02" x2="588.131" y2="347.65" stroke="#ECECEC" stroke-width="2.56061"/>
</svg>
